<svg width="362" height="315" viewBox="0 0 362 315" fill="none" xmlns="http://www.w3.org/2000/svg">
<path d="M162.083 195.172C158.094 195.162 126.571 195.478 125.551 194.816C125.105 194.239 125.033 193.84 125.101 193.13C125.731 185.742 133.217 179.365 141.577 178.536C145.537 178.144 150.331 178.286 154.38 178.283L176.287 178.276L203.04 178.283C207.121 178.283 213.824 178.12 217.805 178.387C222.763 178.361 227.996 180.273 231.456 183.337C237.889 189.034 237.494 194.117 237.502 201.394L237.504 212.245L237.479 228.321C237.479 232.394 236.795 236.15 239.081 239.82L255.336 239.788C258.063 239.781 260.797 239.754 263.523 239.811C265.333 239.848 265.312 241.743 265.183 242.859C264.598 247.935 262.102 252.555 257.448 255.759C254.25 257.96 250.441 259.298 246.31 259.192C244.002 259.361 240.61 259.295 238.208 259.291L224.571 259.247L195.195 259.221C189.495 259.195 178.379 259.712 173.599 257.388C159.552 252.268 162.076 238.411 162.079 227.706L162.083 195.172Z" fill="#F3ECEC"/>
<path d="M217.805 178.387C222.763 178.361 227.996 180.273 231.456 183.337C237.889 189.034 237.494 194.117 237.502 201.394L237.504 212.245L237.479 228.321C237.479 232.394 236.795 236.15 239.081 239.82L255.336 239.788C258.063 239.781 260.797 239.754 263.523 239.811C265.333 239.848 265.312 241.743 265.183 242.859C264.598 247.935 262.102 252.555 257.448 255.759C254.25 257.96 250.441 259.298 246.31 259.192C244.002 259.361 240.61 259.295 238.208 259.291L224.571 259.247L195.195 259.221C189.495 259.195 178.379 259.712 173.599 257.388C173.174 256.716 171.084 255.851 170.343 255.381C164.357 251.576 161.891 245.48 162.401 239.168C162.458 238.456 162.308 237.305 162.549 236.648C163.009 237.15 163.06 237.211 163.743 237.133L163.921 236.818L164.051 236.807C164.143 237.977 164.237 239.092 164.184 240.266C163.935 245.852 166.595 251.705 172.239 254.696C176.036 256.71 180.392 257.629 184.767 256.619C185.972 256.34 188.419 255.878 189.103 254.922C189.196 254.805 190.688 253.99 190.976 253.801C193.635 252.057 195.701 249.717 196.958 247.034C197.933 244.96 197.85 242.702 198.276 240.547C198.329 240.277 198.589 240.088 198.822 239.912C199.692 239.732 204.848 239.791 205.997 239.791C211.139 239.775 216.281 239.783 221.423 239.818C226.119 239.703 231.275 239.792 235.988 239.809C234.498 236.079 234.952 231.597 234.98 227.604L235.079 205.793C235.086 202.389 235.334 195.306 234.591 192.335C233.953 189.835 232.571 187.527 230.584 185.641C227.04 182.245 222.519 180.597 217.299 180.388C215.653 179.508 206.6 180.387 205.612 179.958C206.017 179.732 206.105 179.744 206.294 179.378C206.004 178.989 205.594 178.938 205.06 178.769L204.809 178.69C208.666 178.458 213.76 178.955 217.488 178.433L217.805 178.387Z" fill="#FDFCFC"/>
<path d="M217.805 178.387C222.763 178.361 227.996 180.273 231.456 183.337C237.889 189.034 237.494 194.117 237.502 201.394L237.504 212.245L237.479 228.321C237.479 232.394 236.795 236.15 239.081 239.82L255.336 239.788C258.063 239.781 260.797 239.754 263.523 239.811C265.333 239.848 265.312 241.743 265.183 242.859C264.598 247.935 262.102 252.555 257.448 255.759C254.25 257.96 250.441 259.298 246.31 259.192C245.137 259.048 241.755 259.084 240.345 259.075C241.377 258.649 244.369 259.546 245.918 258.818C246.298 258.251 246.146 258.162 246.132 257.382C244.14 257.268 238.888 257.42 237.281 257.063C244.186 256.905 250.498 258.088 256.108 253.978C260.774 250.559 262.095 246.96 262.724 241.93C242.043 241.795 221.239 242.112 200.56 241.882L200.374 243.665C200.148 243.008 200.161 242.532 200.217 241.858C200.912 241.138 216.002 241.924 218.644 241.523C219.063 241.132 219.187 240.737 219.037 240.214C217.336 239.951 214.667 240.26 212.839 240.152C208.187 239.88 203.466 240.092 198.822 239.912C199.692 239.732 204.848 239.791 205.997 239.791C211.139 239.775 216.281 239.783 221.423 239.818C226.119 239.703 231.275 239.792 235.988 239.809C234.498 236.079 234.952 231.597 234.98 227.604L235.079 205.793C235.086 202.389 235.334 195.306 234.591 192.335C233.953 189.835 232.571 187.527 230.584 185.641C227.04 182.245 222.519 180.597 217.299 180.388C215.653 179.508 206.6 180.387 205.612 179.958C206.017 179.732 206.105 179.744 206.294 179.378C206.004 178.989 205.594 178.938 205.06 178.769L204.809 178.69C208.666 178.458 213.76 178.955 217.488 178.433L217.805 178.387Z" fill="url(#paint0_linear_1_3)"/>
<path d="M198.822 239.912C199.692 239.732 204.848 239.791 205.997 239.791C211.139 239.775 216.281 239.783 221.423 239.818C223.121 240.115 225.384 240.006 227.167 240.026C229.214 240.068 231.261 240.126 233.306 240.203C233.524 240.666 233.508 240.641 233.532 241.144C233.294 241.329 232.93 241.595 232.59 241.584C228.071 241.447 223.36 241.749 218.854 241.535L218.644 241.523C219.063 241.132 219.187 240.737 219.037 240.214C217.336 239.951 214.667 240.26 212.839 240.152C208.187 239.88 203.466 240.092 198.822 239.912Z" fill="#0C0CE8"/>
<path d="M173.599 257.388C173.174 256.716 171.084 255.851 170.343 255.381C164.357 251.575 161.891 245.48 162.401 239.168C162.458 238.456 162.308 237.305 162.549 236.648C163.009 237.15 163.06 237.211 163.743 237.133L163.921 236.818L164.051 236.807C164.143 237.977 164.237 239.092 164.184 240.266C163.935 245.852 166.595 251.705 172.239 254.696C176.036 256.71 180.392 257.629 184.767 256.619C185.972 256.34 188.419 255.878 189.103 254.922C189.196 254.805 190.688 253.99 190.976 253.801C193.635 252.057 195.701 249.717 196.958 247.034C197.933 244.96 197.85 242.702 198.276 240.547C198.329 240.277 198.589 240.088 198.822 239.912C203.466 240.092 208.187 239.88 212.839 240.152C214.667 240.26 217.336 239.951 219.037 240.214C219.187 240.737 219.063 241.132 218.644 241.523C216.002 241.924 200.912 241.138 200.217 241.858C200.161 242.532 200.148 243.008 200.374 243.665C199.588 248.459 197.099 252.397 192.62 255.348C191.62 256.019 190.533 256.585 189.38 257.036C192.525 257.097 197.119 256.985 200.083 257.13C203.639 256.897 209.366 257.063 213.074 257.059L237.281 257.063C238.888 257.42 244.14 257.268 246.132 257.382C246.146 258.162 246.298 258.251 245.918 258.818C244.369 259.546 241.377 258.649 240.345 259.075C241.755 259.084 245.137 259.048 246.31 259.192C244.002 259.361 240.61 259.295 238.208 259.291L224.571 259.247L195.195 259.221C189.495 259.195 178.379 259.712 173.599 257.388Z" fill="#272FED"/>
<path d="M200.083 257.129C203.639 256.897 209.366 257.063 213.074 257.059L237.281 257.063C238.888 257.42 244.14 257.268 246.132 257.382C246.146 258.162 246.298 258.251 245.918 258.818C244.369 259.546 241.377 258.649 240.345 259.075C241.755 259.084 245.137 259.047 246.31 259.192C244.002 259.361 240.61 259.295 238.208 259.291L224.571 259.247L218.243 259.078C220.679 258.849 225.955 259.266 227.662 258.946C226.992 258.105 227.823 257.949 227.466 257.366L212.106 257.222C208.367 257.208 203.758 257.302 200.083 257.129Z" fill="#7730DE"/>
<path d="M162.083 195.172C158.094 195.162 126.571 195.478 125.551 194.816C125.105 194.239 125.033 193.84 125.101 193.13C125.731 185.742 133.217 179.365 141.577 178.536C145.537 178.144 150.331 178.286 154.38 178.283L176.287 178.276L203.04 178.283C207.121 178.283 213.824 178.12 217.805 178.387L217.488 178.433C213.76 178.955 208.666 178.458 204.809 178.69L205.06 178.769C205.594 178.938 206.004 178.989 206.294 179.378C206.105 179.744 206.017 179.731 205.612 179.958C206.6 180.387 215.653 179.508 217.299 180.388C196.311 180.491 175.231 180.196 154.254 180.402C161.512 184.226 164.496 188.671 164.535 196.118C164.555 200.042 164.541 204.01 164.543 207.935L164.563 233.634C164.562 235.31 164.573 237.022 164.54 238.697C164.491 241.258 164.478 243.325 165.216 245.825C167.397 253.217 176.199 258.234 184.837 256.297C186.379 255.945 187.635 255.462 189.103 254.922C188.419 255.878 185.972 256.34 184.767 256.619C180.392 257.629 176.036 256.71 172.239 254.696C166.595 251.705 163.935 245.852 164.185 240.266C164.237 239.092 164.143 237.977 164.051 236.807L163.921 236.818L163.743 237.133C163.06 237.211 163.009 237.15 162.549 236.648C162.308 237.305 162.458 238.456 162.401 239.168C161.891 245.48 164.357 251.575 170.343 255.381C171.084 255.851 173.174 256.716 173.599 257.388C159.552 252.268 162.076 238.411 162.079 227.706L162.083 195.172Z" fill="url(#paint1_linear_1_3)"/>
<path d="M142.645 180.474C142.679 180.47 142.712 180.465 142.746 180.461C147.551 180.045 152.348 181.311 156.079 183.98C159.312 186.268 161.407 189.408 161.819 193.031L146.974 193.027L127.589 193.01C128.789 185.876 134.534 181.413 142.645 180.474Z" fill="#FBF6F6"/>
<path d="M173.767 211.353C175.777 211.238 178.752 211.315 180.857 211.316L194.28 211.319C204.42 211.322 214.561 211.333 224.7 211.285C226.457 211.278 227.544 211.919 226.206 213.394C224.27 213.522 221.166 213.451 219.155 213.452L206.075 213.46C195.729 213.465 185.382 213.466 175.037 213.463C173.34 213.463 172.798 212.556 173.767 211.353ZM173.966 189.5L209.543 189.509C214.497 189.521 219.447 189.489 224.399 189.483C225.425 189.481 226.619 189.652 226.867 190.615C226.653 191.189 226.566 191.216 226.056 191.601C209.064 191.904 191.925 191.422 174.921 191.653C173.934 191.665 173.424 191.436 173.216 190.584C173.366 189.975 173.433 189.957 173.966 189.5ZM189.91 224.238C187.084 224.359 183.687 224.219 180.797 224.282C179.33 224.314 175.128 224.374 173.904 224.179C173.084 223.573 172.966 223.198 173.651 222.444C174.813 221.943 187.812 222.178 189.926 222.236C191.823 222.104 194.778 222.177 196.769 222.18L208.564 222.206L219.894 222.232C221.479 222.236 226.747 221.677 226.976 223.287C226.678 223.736 226.01 224.219 225.509 224.236C222.409 224.344 218.163 224.258 215.114 224.258L198.715 224.268C196.021 224.271 192.498 224.37 189.91 224.238Z" fill="#090015"/>
<path d="M189.91 224.238C187.084 224.359 183.687 224.219 180.797 224.282C179.33 224.314 175.128 224.374 173.904 224.179C173.084 223.573 172.966 223.198 173.651 222.444C174.813 221.943 187.812 222.178 189.926 222.237C188.772 222.646 177.599 222.406 175.376 222.473C175.95 222.495 177.111 222.463 177.527 222.712C177.237 223.182 177.104 222.779 177.304 223.595C177.214 223.693 177.103 223.842 176.995 223.893L177.101 223.824L177.226 224.302L177.578 224.245C179.123 223.995 188.691 223.815 189.91 224.238Z" fill="#3038D2"/>
<path d="M173.891 200.543L211.51 200.545L220.862 200.56C222.197 200.562 224.857 200.483 226.075 200.657C227.001 201.257 226.809 201.808 226.252 202.563C223.171 202.664 219.943 202.58 216.848 202.58C202.918 202.58 188.986 202.538 175.056 202.606C174.041 202.611 173.549 202.501 173.208 201.66C173.3 201.036 173.361 201.019 173.891 200.543Z" fill="#040404"/>
<path d="M173.716 233.017C181.633 232.703 189.978 233.195 197.939 232.989C199.001 232.962 199.609 232.943 200.069 233.812C200.069 234.438 199.986 234.478 199.551 235.02C194.206 235.181 188.364 234.953 182.967 235.061C181.421 235.092 174.926 235.136 173.831 234.961C172.812 234.298 173.041 233.824 173.716 233.017Z" fill="#00000C"/>
<path d="M72.1944 108.346C72.3401 108.293 73.2493 107.926 73.2536 107.843C73.9109 94.4252 78.1667 83.0053 88.366 72.3865C108.128 51.8112 145.162 47.4584 170.799 62.2946C173.769 64.0136 176.14 65.7938 178.868 67.7897C187.123 64.7359 192.977 63.722 201.9 64.3146C215.869 65.2424 228.592 71.8303 235.037 82.763C247.67 79.3972 261.55 80.1626 272.308 87.4045C279.507 92.173 284.174 99.2814 285.236 107.101C311.081 113.805 326.677 132.25 326.823 155.697C326.981 180.528 304.593 202.697 275.836 204.373C271.306 204.638 266.809 204.576 262.245 204.57L242.565 204.573C242.478 202.724 242.533 200.557 242.529 198.685C248.044 198.753 253.589 198.673 259.1 198.716C268.812 198.793 277.013 199.173 286.447 196.62C313.381 189.329 326.033 161.817 317.16 139.512C312.826 128.323 303.244 119.256 290.791 114.563C287.581 113.343 284.318 112.815 281.278 111.876C278.708 111.081 278.395 105.58 277.453 103.227C272.264 90.2829 256.226 84.4597 241.414 87.2082C238.436 87.7603 235.542 88.7789 232.67 89.645C231.335 88.4947 230.632 87.2481 229.686 85.8536C221.49 73.5308 204.972 67.3471 189.053 70.6409C187.492 70.9557 186.269 71.343 184.864 71.7422C183.236 72.2048 178.548 74.8042 177.235 74.2585C175.928 73.7152 173.14 70.9284 171.74 69.9366C165.681 65.6463 158.846 62.593 151.301 60.907C136.282 57.4624 120.306 59.3569 106.894 66.1726C93.5606 73.0631 85.3109 84.1281 81.5467 97.0306C80.3104 94.5549 87.5404 84.1118 88.03 81.4184C86.9323 79.7285 84.515 81.3538 83.8044 78.3295C83.24 78.9007 82.3856 80.2793 81.9294 80.9716C78.3387 86.481 75.8583 92.4846 74.5957 98.7223C73.9714 101.752 73.7172 104.502 73.7404 107.578C73.7434 107.971 73.3861 108.223 73.0552 108.426C72.4615 108.451 72.5677 108.545 72.1944 108.346Z" fill="url(#paint2_linear_1_3)"/>
<path d="M72.1944 108.346C72.5677 108.545 72.4615 108.451 73.0552 108.426C73.3861 108.223 73.7434 107.971 73.7404 107.578C73.7172 104.502 73.9714 101.752 74.5957 98.7224C75.8583 92.4846 78.3387 86.481 81.9294 80.9716C82.3856 80.2793 83.24 78.9007 83.8044 78.3295C84.515 81.3538 86.9323 79.7285 88.03 81.4184C87.5404 84.1118 80.3104 94.5549 81.5467 97.0306C81.0392 99.1093 80.6353 100.991 80.3131 103.095C79.9147 105.696 80.1984 108.678 79.2172 111.122C78.7723 112.23 74.1822 113.588 72.8933 114.05C71.2383 114.659 69.6138 115.328 68.024 116.057C26.5868 135.146 35.8498 188.775 80.9203 197.532C90.3828 199.37 103.199 198.707 113.064 198.698L157.232 198.711C157.17 200.674 157.138 202.637 157.139 204.599H116.302L100.785 204.596C95.1505 204.61 89.6042 204.776 83.9333 204.01C28.3325 196.5 16.2069 132.311 66.9134 110.296C68.4482 109.63 70.5023 108.735 72.1944 108.346Z" fill="#EA7F6B"/>
<defs>
<linearGradient id="paint0_linear_1_3" x1="248.914" y1="207.109" x2="222.249" y2="226.495" gradientUnits="userSpaceOnUse">
<stop stop-color="#7917AB"/>
<stop offset="1" stop-color="#EA7A63"/>
</linearGradient>
<linearGradient id="paint1_linear_1_3" x1="198.437" y1="171.609" x2="147.806" y2="221.944" gradientUnits="userSpaceOnUse">
<stop stop-color="#7C20AB"/>
<stop offset="1" stop-color="#914DBB"/>
</linearGradient>
<linearGradient id="paint2_linear_1_3" x1="137.821" y1="161.116" x2="278.542" y2="68.7085" gradientUnits="userSpaceOnUse">
<stop stop-color="#E47861"/>
<stop offset="1" stop-color="#52CC99"/>
</linearGradient>
</defs>
</svg>
